<svg width="90" height="30" viewBox="0 0 90 30" fill="none" xmlns="http://www.w3.org/2000/svg">
<path d="M13.75 23.75C19.2728 23.75 23.75 19.2728 23.75 13.75C23.75 8.22715 19.2728 3.75 13.75 3.75C8.22715 3.75 3.75 8.22715 3.75 13.75C3.75 19.2728 8.22715 23.75 13.75 23.75Z" stroke="#fff" stroke-width="2" stroke-linecap="round" stroke-linejoin="round"/>
<path d="M26.25 26.25L20.8125 20.8125" stroke="#fff" stroke-width="2" stroke-linecap="round" stroke-linejoin="round"/>
<path d="M86.25 12.5C86.25 21.25 75 28.75 75 28.75C75 28.75 63.75 21.25 63.75 12.5C63.75 9.51631 64.9353 6.65483 67.045 4.54505C69.1548 2.43526 72.0163 1.25 75 1.25C77.9837 1.25 80.8452 2.43526 82.955 4.54505C85.0647 6.65483 86.25 9.51631 86.25 12.5Z" stroke="#fff" stroke-width="2" stroke-linecap="round" stroke-linejoin="round"/>
<path d="M75 16.25C77.0711 16.25 78.75 14.5711 78.75 12.5C78.75 10.4289 77.0711 8.75 75 8.75C72.9289 8.75 71.25 10.4289 71.25 12.5C71.25 14.5711 72.9289 16.25 75 16.25Z" stroke="#fff" stroke-width="2" stroke-linecap="round" stroke-linejoin="round"/>
</svg>
